<?xml version="1.0" encoding="UTF-8"?>
<svg width="114px" height="28px" viewBox="0 0 114 28" version="1.1" xmlns="http://www.w3.org/2000/svg" xmlns:xlink="http://www.w3.org/1999/xlink">
    <title>Logo</title>
    <g id="Page-1" stroke="none" stroke-width="1" fill="none" fill-rule="evenodd">
        <g id="Artboard" transform="translate(-123.000000, -55.000000)">
            <g id="Logo" transform="translate(123.066000, 55.000000)">
                <g id="First" transform="translate(0.000000, 4.540000)" fill="#FFFFFF" fill-rule="nonzero">
                    <polygon id="Path" points="2.84217094e-14 0.26 7.566 0.26 7.566 2.86 2.86 2.86 2.86 7.93 6.552 7.93 6.552 10.53 2.86 10.53 2.86 18.46 2.84217094e-14 18.46"></polygon>
                    <polygon id="Path" points="9.944 0.26 12.804 0.26 12.804 18.46 9.944 18.46"></polygon>
                    <path d="M15.936,0.26 L20.174,0.26 C21.6473333,0.26 22.722,0.602333333 23.398,1.287 C24.074,1.97166667 24.412,3.02466667 24.412,4.446 L24.412,5.564 C24.412,7.45333333 23.788,8.64933333 22.54,9.152 L22.54,9.204 C23.2333333,9.412 23.723,9.83666667 24.009,10.478 C24.295,11.1193333 24.438,11.9773333 24.438,13.052 L24.438,16.25 C24.438,16.77 24.4553333,17.1903333 24.49,17.511 C24.5246667,17.8316667 24.6113333,18.148 24.75,18.46 L21.838,18.46 C21.734,18.1653333 21.6646667,17.888 21.63,17.628 C21.5953333,17.368 21.578,16.9 21.578,16.224 L21.578,12.896 C21.578,12.064 21.4436667,11.4833333 21.175,11.154 C20.9063333,10.8246667 20.4426667,10.66 19.784,10.66 L18.796,10.66 L18.796,18.46 L15.936,18.46 L15.936,0.26 Z M19.836,8.06 C20.408,8.06 20.837,7.91266667 21.123,7.618 C21.409,7.32333333 21.552,6.82933333 21.552,6.136 L21.552,4.732 C21.552,4.07333333 21.435,3.59666667 21.201,3.302 C20.967,3.00733333 20.5986667,2.86 20.096,2.86 L18.796,2.86 L18.796,8.06 L19.836,8.06 Z" id="Shape"></path>
                    <path d="M31.132,18.72 C29.7453333,18.72 28.6966667,18.3256667 27.986,17.537 C27.2753333,16.7483333 26.92,15.6173333 26.92,14.144 L26.92,13.104 L29.624,13.104 L29.624,14.352 C29.624,15.5306667 30.118,16.12 31.106,16.12 C31.5913333,16.12 31.9596667,15.977 32.211,15.691 C32.4623333,15.405 32.588,14.9413333 32.588,14.3 C32.588,13.5373333 32.4146667,12.8656667 32.068,12.285 C31.7213333,11.7043333 31.08,11.0066667 30.144,10.192 C28.9653333,9.152 28.142,8.21166667 27.674,7.371 C27.206,6.53033333 26.972,5.58133333 26.972,4.524 C26.972,3.08533333 27.336,1.97166667 28.064,1.183 C28.792,0.394333333 29.8493333,-2.84217094e-14 31.236,-2.84217094e-14 C32.6053333,-2.84217094e-14 33.641,0.394333333 34.343,1.183 C35.045,1.97166667 35.396,3.10266667 35.396,4.576 L35.396,5.33 L32.692,5.33 L32.692,4.394 C32.692,3.77 32.5706667,3.315 32.328,3.029 C32.0853333,2.743 31.73,2.6 31.262,2.6 C30.3086667,2.6 29.832,3.18066667 29.832,4.342 C29.832,5.00066667 30.0096667,5.616 30.365,6.188 C30.7203333,6.76 31.366,7.45333333 32.302,8.268 C33.498,9.308 34.3213333,10.2526667 34.772,11.102 C35.2226667,11.9513333 35.448,12.948 35.448,14.092 C35.448,15.5826667 35.0796667,16.7266667 34.343,17.524 C33.6063333,18.3213333 32.536,18.72 31.132,18.72 Z" id="Path"></path>
                    <polygon id="Path" points="40.322 2.86 37.332 2.86 37.332 0.26 46.172 0.26 46.172 2.86 43.182 2.86 43.182 18.46 40.322 18.46"></polygon>
                </g>
                <path d="M113.934,0 L113.934,28 L48.934,28 L48.934,0 L113.934,0 Z M58.822,4.54 C57.4353333,4.54 56.378,4.93433333 55.65,5.723 C54.922,6.51166667 54.558,7.62533333 54.558,9.064 C54.558,10.1213333 54.792,11.0703333 55.26,11.911 C55.728,12.7516667 56.5513333,13.692 57.73,14.732 C58.666,15.5466667 59.3073333,16.2443333 59.654,16.825 C60.0006667,17.4056667 60.174,18.0773333 60.174,18.84 C60.174,19.4813333 60.0483333,19.945 59.797,20.231 C59.5456667,20.517 59.1773333,20.66 58.692,20.66 C57.704,20.66 57.21,20.0706667 57.21,18.892 L57.21,18.892 L57.21,17.644 L54.506,17.644 L54.506,18.684 C54.506,20.1573333 54.8613333,21.2883333 55.572,22.077 C56.2826667,22.8656667 57.3313333,23.26 58.718,23.26 C60.122,23.26 61.1923333,22.8613333 61.929,22.064 C62.6656667,21.2666667 63.034,20.1226667 63.034,18.632 C63.034,17.488 62.8086667,16.4913333 62.358,15.642 C61.9073333,14.7926667 61.084,13.848 59.888,12.808 C58.952,11.9933333 58.3063333,11.3 57.951,10.728 C57.5956667,10.156 57.418,9.54066667 57.418,8.882 C57.418,7.72066667 57.8946667,7.14 58.848,7.14 C59.316,7.14 59.6713333,7.283 59.914,7.569 C60.1566667,7.855 60.278,8.31 60.278,8.934 L60.278,8.934 L60.278,9.87 L62.982,9.87 L62.982,9.116 C62.982,7.64266667 62.631,6.51166667 61.929,5.723 C61.227,4.93433333 60.1913333,4.54 58.822,4.54 Z M80.842,4.54 C79.438,4.54 78.3633333,4.93866667 77.618,5.736 C76.8726667,6.53333333 76.5,7.66 76.5,9.116 L76.5,9.116 L76.5,18.684 C76.5,20.14 76.8726667,21.2666667 77.618,22.064 C78.3633333,22.8613333 79.438,23.26 80.842,23.26 C82.246,23.26 83.3206667,22.8613333 84.066,22.064 C84.8113333,21.2666667 85.184,20.14 85.184,18.684 L85.184,18.684 L85.184,9.116 C85.184,7.66 84.8113333,6.53333333 84.066,5.736 C83.3206667,4.93866667 82.246,4.54 80.842,4.54 Z M69.884,4.8 L65.672,4.8 L65.672,23 L68.532,23 L68.532,15.59 L69.884,15.59 C71.3053333,15.59 72.3713333,15.2086667 73.082,14.446 C73.7926667,13.6833333 74.148,12.5653333 74.148,11.092 L74.148,11.092 L74.148,9.298 C74.148,7.82466667 73.7926667,6.70666667 73.082,5.944 C72.3713333,5.18133333 71.3053333,4.8 69.884,4.8 L69.884,4.8 Z M92.346,4.8 L88.108,4.8 L88.108,23 L90.968,23 L90.968,15.2 L91.956,15.2 C92.6146667,15.2 93.0783333,15.3646667 93.347,15.694 C93.6156667,16.0233333 93.75,16.604 93.75,17.436 L93.75,17.436 L93.75,20.764 C93.75,21.44 93.7673333,21.908 93.802,22.168 C93.8366667,22.428 93.906,22.7053333 94.01,23 L94.01,23 L96.922,23 C96.7833333,22.688 96.6966667,22.3716667 96.662,22.051 C96.6273333,21.7303333 96.61,21.31 96.61,20.79 L96.61,20.79 L96.61,17.592 C96.61,16.5173333 96.467,15.6593333 96.181,15.018 C95.895,14.3766667 95.4053333,13.952 94.712,13.744 L94.712,13.744 L94.712,13.692 C95.96,13.1893333 96.584,11.9933333 96.584,10.104 L96.584,10.104 L96.584,8.986 C96.584,7.56466667 96.246,6.51166667 95.57,5.827 C94.894,5.14233333 93.8193333,4.8 92.346,4.8 L92.346,4.8 Z M107.62,4.8 L98.78,4.8 L98.78,7.4 L101.77,7.4 L101.77,23 L104.63,23 L104.63,7.4 L107.62,7.4 L107.62,4.8 Z M80.842,7.14 C81.83,7.14 82.324,7.738 82.324,8.934 L82.324,8.934 L82.324,18.866 C82.324,20.062 81.83,20.66 80.842,20.66 C79.854,20.66 79.36,20.062 79.36,18.866 L79.36,18.866 L79.36,8.934 C79.36,7.738 79.854,7.14 80.842,7.14 Z M69.884,7.4 C70.352,7.4 70.703,7.53 70.937,7.79 C71.171,8.05 71.288,8.492 71.288,9.116 L71.288,9.116 L71.288,11.274 C71.288,11.898 71.171,12.34 70.937,12.6 C70.703,12.86 70.352,12.99 69.884,12.99 L69.884,12.99 L68.532,12.99 L68.532,7.4 Z M92.268,7.4 C92.7706667,7.4 93.139,7.54733333 93.373,7.842 C93.607,8.13666667 93.724,8.61333333 93.724,9.272 L93.724,9.272 L93.724,10.676 C93.724,11.3693333 93.581,11.8633333 93.295,12.158 C93.009,12.4526667 92.58,12.6 92.008,12.6 L92.008,12.6 L90.968,12.6 L90.968,7.4 Z" id="Combined-Shape" fill="#CBFF00"></path>
            </g>
        </g>
    </g>
</svg>